<svg width="12" height="16" viewBox="0 0 12 16" fill="none" xmlns="http://www.w3.org/2000/svg">
  <path d="M4.9995 12.15L4.9995 1C4.9995 0.716666 5.09533 0.479166 5.287 0.2875C5.47867 0.0958331 5.71617 -2.55551e-07 5.9995 -2.43166e-07C6.28283 -2.30782e-07 6.52033 0.0958331 6.712 0.2875C6.90367 0.479166 6.9995 0.716666 6.9995 1L6.9995 12.15L9.8495 9.3C10.0495 9.1 10.2828 9.00417 10.5495 9.0125C10.8162 9.02083 11.0495 9.11667 11.2495 9.3C11.4495 9.5 11.5537 9.7375 11.562 10.0125C11.5703 10.2875 11.4745 10.525 11.2745 10.725L6.6995 15.3C6.5995 15.4 6.49117 15.4708 6.3745 15.5125C6.25783 15.5542 6.13283 15.575 5.9995 15.575C5.86617 15.575 5.74117 15.5542 5.6245 15.5125C5.50783 15.4708 5.3995 15.4 5.2995 15.3L0.724499 10.725C0.524499 10.525 0.428667 10.2875 0.437 10.0125C0.445333 9.7375 0.5495 9.5 0.7495 9.3C0.9495 9.11667 1.18283 9.02083 1.4495 9.0125C1.71617 9.00417 1.9495 9.1 2.1495 9.3L4.9995 12.15Z" fill="#0094EB" />
</svg>