<svg width="24" height="24" viewBox="0 0 24 24" fill="none" xmlns="http://www.w3.org/2000/svg">
<path d="M18.175 13.0001H4C3.71667 13.0001 3.47917 12.9043 3.2875 12.7126C3.09583 12.5209 3 12.2834 3 12.0001C3 11.7168 3.09583 11.4793 3.2875 11.2876C3.47917 11.0959 3.71667 11.0001 4 11.0001H18.175L16.8 9.60011C16.6 9.40011 16.5042 9.16678 16.5125 8.90011C16.5208 8.63344 16.625 8.40011 16.825 8.20011C17.025 8.01678 17.2625 7.92094 17.5375 7.91261C17.8125 7.90428 18.0417 8.00011 18.225 8.20011L21.3 11.3001C21.5 11.5001 21.6 11.7334 21.6 12.0001C21.6 12.2668 21.5 12.5001 21.3 12.7001L18.2 15.8001C18.0167 15.9834 17.7875 16.0751 17.5125 16.0751C17.2375 16.0751 17 15.9834 16.8 15.8001C16.6 15.6001 16.5 15.3626 16.5 15.0876C16.5 14.8126 16.6 14.5751 16.8 14.3751L18.175 13.0001Z" fill="#0094EB"/>
</svg>
