<svg width="24" height="24" viewBox="0 0 24 24" fill="none" xmlns="http://www.w3.org/2000/svg">
<path d="M6.8252 11.0001L17.1752 11.0001L16.2752 10.1001C16.0919 9.91678 16.0002 9.68761 16.0002 9.41261C16.0002 9.13761 16.1002 8.90011 16.3002 8.70011C16.4835 8.51678 16.7169 8.42511 17.0002 8.42511C17.2835 8.42511 17.5169 8.51678 17.7002 8.70011L20.3002 11.3001C20.4002 11.4001 20.471 11.5084 20.5127 11.6251C20.5544 11.7418 20.5752 11.8668 20.5752 12.0001C20.5752 12.1334 20.5544 12.2584 20.5127 12.3751C20.471 12.4918 20.4002 12.6001 20.3002 12.7001L17.7002 15.3001C17.5169 15.4834 17.2877 15.5751 17.0127 15.5751C16.7377 15.5751 16.5002 15.4834 16.3002 15.3001C16.1002 15.1001 16.0002 14.8626 16.0002 14.5876C16.0002 14.3126 16.1002 14.0751 16.3002 13.8751L17.1752 13.0001L6.8252 13.0001L7.7252 13.9001C7.90853 14.0834 8.0002 14.3126 8.0002 14.5876C8.0002 14.8626 7.9002 15.1001 7.7002 15.3001C7.51686 15.4834 7.28353 15.5751 7.0002 15.5751C6.71686 15.5751 6.48353 15.4834 6.3002 15.3001L3.7002 12.7001C3.6002 12.6001 3.52936 12.4918 3.4877 12.3751C3.44603 12.2584 3.4252 12.1334 3.4252 12.0001C3.4252 11.8668 3.44603 11.7418 3.4877 11.6251C3.52936 11.5084 3.6002 11.4001 3.7002 11.3001L6.3002 8.70011C6.48353 8.51678 6.7127 8.42094 6.9877 8.41261C7.2627 8.40428 7.5002 8.50011 7.7002 8.70011C7.88353 8.88344 7.9752 9.11678 7.9752 9.40011C7.9752 9.68344 7.88353 9.91678 7.7002 10.1001L6.8252 11.0001Z" fill="#364253"/>
</svg>
