<svg width="24" height="24" viewBox="0 0 24 24" fill="none" xmlns="http://www.w3.org/2000/svg">
<path d="M11.0001 17.1748V6.8248L10.1001 7.7248C9.91678 7.90814 9.68761 7.9998 9.41261 7.9998C9.13761 7.9998 8.90011 7.8998 8.70011 7.6998C8.51678 7.51647 8.42511 7.28314 8.42511 6.9998C8.42511 6.71647 8.51678 6.48314 8.70011 6.2998L11.3001 3.6998C11.4001 3.5998 11.5084 3.52897 11.6251 3.4873C11.7418 3.44564 11.8668 3.4248 12.0001 3.4248C12.1334 3.4248 12.2584 3.44564 12.3751 3.4873C12.4918 3.52897 12.6001 3.5998 12.7001 3.6998L15.3001 6.2998C15.4834 6.48314 15.5751 6.7123 15.5751 6.9873C15.5751 7.2623 15.4834 7.4998 15.3001 7.6998C15.1001 7.8998 14.8626 7.9998 14.5876 7.9998C14.3126 7.9998 14.0751 7.8998 13.8751 7.6998L13.0001 6.8248V17.1748L13.9001 16.2748C14.0834 16.0915 14.3126 15.9998 14.5876 15.9998C14.8626 15.9998 15.1001 16.0998 15.3001 16.2998C15.4834 16.4831 15.5751 16.7165 15.5751 16.9998C15.5751 17.2831 15.4834 17.5165 15.3001 17.6998L12.7001 20.2998C12.6001 20.3998 12.4918 20.4706 12.3751 20.5123C12.2584 20.554 12.1334 20.5748 12.0001 20.5748C11.8668 20.5748 11.7418 20.554 11.6251 20.5123C11.5084 20.4706 11.4001 20.3998 11.3001 20.2998L8.70011 17.6998C8.51678 17.5165 8.42094 17.2873 8.41261 17.0123C8.40428 16.7373 8.50011 16.4998 8.70011 16.2998C8.88344 16.1165 9.11678 16.0248 9.40011 16.0248C9.68344 16.0248 9.91678 16.1165 10.1001 16.2998L11.0001 17.1748Z" fill="#364253"/>
</svg>
