<svg width="8" height="5" viewBox="0 0 8 5" fill="none" xmlns="http://www.w3.org/2000/svg">
  <path d="M4.00013 3.40052L6.60013 0.800521C6.72235 0.678299 6.87791 0.617187 7.0668 0.617187C7.25569 0.617187 7.41124 0.678299 7.53346 0.800521C7.65569 0.922743 7.7168 1.0783 7.7168 1.26719C7.7168 1.45608 7.65569 1.61163 7.53346 1.73385L4.4668 4.80052C4.40013 4.86719 4.32791 4.91441 4.25013 4.94219C4.17235 4.96997 4.08902 4.98385 4.00013 4.98385C3.91124 4.98385 3.82791 4.96997 3.75013 4.94219C3.67235 4.91441 3.60013 4.86719 3.53346 4.80052L0.466796 1.73385C0.344574 1.61163 0.283463 1.45608 0.283463 1.26719C0.283463 1.0783 0.344574 0.922743 0.466796 0.800521C0.589019 0.678298 0.744574 0.617187 0.933463 0.617187C1.12235 0.617187 1.27791 0.678298 1.40013 0.800521L4.00013 3.40052Z" fill="#3B3C3D" />
</svg>