<svg width="22" height="22" viewBox="0 0 22 22" fill="none" xmlns="http://www.w3.org/2000/svg">
  <path d="M10.0008 20.9498V19.9498C7.91745 19.7165 6.12995 18.854 4.63828 17.3623C3.14661 15.8706 2.28411 14.0831 2.05078 11.9998H1.05078C0.767448 11.9998 0.529948 11.904 0.338281 11.7123C0.146615 11.5206 0.0507812 11.2831 0.0507812 10.9998C0.0507812 10.7165 0.146615 10.479 0.338281 10.2873C0.529948 10.0956 0.767448 9.9998 1.05078 9.9998H2.05078C2.28411 7.91647 3.14661 6.12897 4.63828 4.6373C6.12995 3.14564 7.91745 2.28314 10.0008 2.0498V1.0498C10.0008 0.766471 10.0966 0.528971 10.2883 0.337305C10.4799 0.145638 10.7174 0.0498047 11.0008 0.0498047C11.2841 0.0498047 11.5216 0.145638 11.7133 0.337305C11.9049 0.528971 12.0008 0.766471 12.0008 1.0498V2.0498C14.0841 2.28314 15.8716 3.14564 17.3633 4.6373C18.8549 6.12897 19.7174 7.91647 19.9508 9.9998H20.9508C21.2341 9.9998 21.4716 10.0956 21.6633 10.2873C21.8549 10.479 21.9508 10.7165 21.9508 10.9998C21.9508 11.2831 21.8549 11.5206 21.6633 11.7123C21.4716 11.904 21.2341 11.9998 20.9508 11.9998H19.9508C19.7174 14.0831 18.8549 15.8706 17.3633 17.3623C15.8716 18.854 14.0841 19.7165 12.0008 19.9498V20.9498C12.0008 21.2331 11.9049 21.4706 11.7133 21.6623C11.5216 21.854 11.2841 21.9498 11.0008 21.9498C10.7174 21.9498 10.4799 21.854 10.2883 21.6623C10.0966 21.4706 10.0008 21.2331 10.0008 20.9498ZM11.0008 17.9998C12.9341 17.9998 14.5841 17.3165 15.9508 15.9498C17.3174 14.5831 18.0008 12.9331 18.0008 10.9998C18.0008 9.06647 17.3174 7.41647 15.9508 6.0498C14.5841 4.68314 12.9341 3.9998 11.0008 3.9998C9.06745 3.9998 7.41745 4.68314 6.05078 6.0498C4.68411 7.41647 4.00078 9.06647 4.00078 10.9998C4.00078 12.9331 4.68411 14.5831 6.05078 15.9498C7.41745 17.3165 9.06745 17.9998 11.0008 17.9998ZM11.0008 14.9998C9.90078 14.9998 8.95912 14.6081 8.17578 13.8248C7.39245 13.0415 7.00078 12.0998 7.00078 10.9998C7.00078 9.89981 7.39245 8.95814 8.17578 8.1748C8.95912 7.39147 9.90078 6.9998 11.0008 6.9998C12.1008 6.9998 13.0424 7.39147 13.8258 8.1748C14.6091 8.95814 15.0008 9.89981 15.0008 10.9998C15.0008 12.0998 14.6091 13.0415 13.8258 13.8248C13.0424 14.6081 12.1008 14.9998 11.0008 14.9998Z" fill="white" />
</svg>