<svg width="55" height="55" viewBox="0 0 55 55" fill="none" xmlns="http://www.w3.org/2000/svg">
<path d="M12.2057 38.9577C11.0981 38.9577 10.296 39.1964 9.79948 39.6738C9.30295 40.1513 8.61545 40.4855 7.73698 40.6764C6.85851 40.8674 6.11372 40.7815 5.5026 40.4186C4.89149 40.0558 4.58594 39.5115 4.58594 38.7858C4.58594 38.2129 4.8342 37.6591 5.33073 37.1243C5.82726 36.5896 6.61024 36.0549 7.67969 35.5202C7.87066 35.4056 8.37674 35.186 9.19792 34.8613C10.0191 34.5367 11.0981 34.3743 12.4349 34.3743C14.5356 34.3743 15.9488 34.7563 16.6745 35.5202C17.4002 36.2841 18.4696 36.666 19.8828 36.666C21.296 36.666 22.3559 36.2841 23.0625 35.5202C23.7691 34.7563 25.23 34.3743 27.4453 34.3743C29.6606 34.3743 31.1597 34.7563 31.9427 35.5202C32.7257 36.2841 33.8238 36.666 35.237 36.666C36.6502 36.666 37.6814 36.2841 38.3307 35.5202C38.98 34.7563 40.3932 34.3743 42.5703 34.3743C43.4488 34.3743 44.2986 34.4794 45.1198 34.6895C45.941 34.8995 46.7717 35.2146 47.612 35.6348C48.5668 36.1313 49.2734 36.6469 49.7318 37.1816C50.1901 37.7164 50.4193 38.2511 50.4193 38.7858C50.4193 39.5115 50.1137 40.0558 49.5026 40.4186C48.8915 40.7815 48.1467 40.8674 47.2682 40.6764C46.3898 40.4855 45.6927 40.1513 45.1771 39.6738C44.6615 39.1964 43.8689 38.9577 42.7995 38.9577C41.3863 38.9577 40.3264 39.3396 39.6198 40.1035C38.9132 40.8674 37.4523 41.2493 35.237 41.2493C33.0217 41.2493 31.5226 40.8674 30.7396 40.1035C29.9566 39.3396 28.8585 38.9577 27.4453 38.9577C26.0321 38.9577 24.9722 39.3396 24.2656 40.1035C23.559 40.8674 22.079 41.2493 19.8255 41.2493C17.572 41.2493 16.1016 40.8674 15.4141 40.1035C14.7266 39.3396 13.6571 38.9577 12.2057 38.9577ZM12.2057 29.791C11.1363 29.791 10.3437 30.0297 9.82812 30.5072C9.3125 30.9846 8.61545 31.3188 7.73698 31.5098C6.85851 31.7007 6.11372 31.6148 5.5026 31.252C4.89149 30.8891 4.58594 30.3448 4.58594 29.6191C4.58594 29.0462 4.8342 28.4924 5.33073 27.9577C5.82726 27.423 6.61024 26.8882 7.67969 26.3535C7.87066 26.2389 8.37674 26.0193 9.19792 25.6947C10.0191 25.37 11.0981 25.2077 12.4349 25.2077C14.5356 25.2077 15.9488 25.5896 16.6745 26.3535C17.4002 27.1174 18.4696 27.4993 19.8828 27.4993C21.296 27.4993 22.3559 27.1174 23.0625 26.3535C23.7691 25.5896 25.23 25.2077 27.4453 25.2077C29.6606 25.2077 31.1597 25.5896 31.9427 26.3535C32.7257 27.1174 33.8047 27.4993 35.1797 27.4993C36.5547 27.4993 37.5859 27.1174 38.2734 26.3535C38.9609 25.5896 40.3741 25.2077 42.513 25.2077C43.8498 25.2077 44.9288 25.37 45.75 25.6947C46.5712 26.0193 47.0773 26.2389 47.2682 26.3535C48.3759 26.9264 49.1779 27.4707 49.6745 27.9863C50.171 28.502 50.4193 29.0462 50.4193 29.6191C50.4193 30.3448 50.1042 30.8891 49.474 31.252C48.8437 31.6148 48.0894 31.7007 47.2109 31.5098C46.3325 31.3188 45.645 30.9846 45.1484 30.5072C44.6519 30.0297 43.8689 29.791 42.7995 29.791C41.3863 29.791 40.3264 30.173 39.6198 30.9368C38.9132 31.7007 37.4523 32.0827 35.237 32.0827C33.0217 32.0827 31.5226 31.7007 30.7396 30.9368C29.9566 30.173 28.8585 29.791 27.4453 29.791C26.0321 29.791 24.9913 30.173 24.3229 30.9368C23.6545 31.7007 22.1936 32.0827 19.9401 32.0827C17.6866 32.0827 16.1875 31.7007 15.4427 30.9368C14.6979 30.173 13.6189 29.791 12.2057 29.791ZM12.2057 20.6243C11.1363 20.6243 10.3437 20.8631 9.82812 21.3405C9.3125 21.8179 8.61545 22.1521 7.73698 22.3431C6.85851 22.5341 6.11372 22.4481 5.5026 22.0853C4.89149 21.7224 4.58594 21.1782 4.58594 20.4525C4.58594 19.8796 4.8342 19.3257 5.33073 18.791C5.82726 18.2563 6.61024 17.7216 7.67969 17.1868C7.87066 17.0723 8.37674 16.8526 9.19792 16.528C10.0191 16.2033 11.0981 16.041 12.4349 16.041C14.5356 16.041 15.9488 16.423 16.6745 17.1868C17.4002 17.9507 18.4696 18.3327 19.8828 18.3327C21.296 18.3327 22.3559 17.9507 23.0625 17.1868C23.7691 16.423 25.23 16.041 27.4453 16.041C29.6606 16.041 31.1597 16.423 31.9427 17.1868C32.7257 17.9507 33.8047 18.3327 35.1797 18.3327C36.5547 18.3327 37.5859 17.9507 38.2734 17.1868C38.9609 16.423 40.3741 16.041 42.513 16.041C43.8498 16.041 44.9288 16.2033 45.75 16.528C46.5712 16.8526 47.0773 17.0723 47.2682 17.1868C48.3759 17.7598 49.1779 18.304 49.6745 18.8197C50.171 19.3353 50.4193 19.8796 50.4193 20.4525C50.4193 21.1782 50.1042 21.7224 49.474 22.0853C48.8437 22.4481 48.0894 22.5341 47.2109 22.3431C46.3325 22.1521 45.645 21.8179 45.1484 21.3405C44.6519 20.8631 43.8689 20.6243 42.7995 20.6243C41.3863 20.6243 40.3264 21.0063 39.6198 21.7702C38.9132 22.5341 37.4523 22.916 35.237 22.916C33.0217 22.916 31.5226 22.5341 30.7396 21.7702C29.9566 21.0063 28.8585 20.6243 27.4453 20.6243C26.0321 20.6243 24.9913 21.0063 24.3229 21.7702C23.6545 22.5341 22.1936 22.916 19.9401 22.916C17.6866 22.916 16.1875 22.5341 15.4427 21.7702C14.6979 21.0063 13.6189 20.6243 12.2057 20.6243Z" fill="#0094EB"/>
</svg>
