<svg width="56" height="56" viewBox="0 0 56 56" fill="none" xmlns="http://www.w3.org/2000/svg">
<path d="M6.41319 46.6673C5.51875 46.6673 4.85764 46.2979 4.42986 45.559C4.00208 44.8201 3.98264 44.0618 4.37153 43.284L10.7299 30.5673C11.1187 29.7895 11.6729 29.1673 12.3924 28.7006C13.1118 28.234 13.9187 28.0007 14.8132 28.0007C15.7465 28.0007 16.6021 28.2437 17.3799 28.7298C18.1576 29.2159 18.7215 29.9062 19.0715 30.8006L20.6465 34.6507C20.7243 34.884 20.8993 34.9909 21.1715 34.9715C21.4438 34.952 21.6187 34.8256 21.6965 34.5923L26.7132 17.8507C27.2576 15.984 28.2979 14.4868 29.834 13.359C31.3701 12.2312 33.1104 11.6673 35.0549 11.6673C36.9604 11.6673 38.6618 12.2215 40.159 13.3298C41.6562 14.4382 42.6965 15.8868 43.2799 17.6757L52.3215 43.5756C52.5938 44.3534 52.4868 45.0631 52.0007 45.7048C51.5146 46.3465 50.8826 46.6673 50.1049 46.6673H6.41319ZM13.9965 23.334C12.0521 23.334 10.3993 22.6437 9.03819 21.2632C7.67708 19.8826 6.99653 18.2395 6.99653 16.334C6.99653 14.3895 7.67708 12.7368 9.03819 11.3757C10.3993 10.0145 12.0521 9.33398 13.9965 9.33398C15.941 9.33398 17.5938 10.0145 18.9549 11.3757C20.316 12.7368 20.9965 14.3895 20.9965 16.334C20.9965 18.2395 20.316 19.8826 18.9549 21.2632C17.5938 22.6437 15.941 23.334 13.9965 23.334Z" fill="#0094EB"/>
</svg>
