<svg width="44" height="44" viewBox="0 0 44 44" fill="none" xmlns="http://www.w3.org/2000/svg">
<path d="M20.1693 36.666V29.3327H16.5026C13.9665 29.3327 11.8047 28.4389 10.0172 26.6514C8.22969 24.8639 7.33594 22.7021 7.33594 20.166C7.33594 18.3327 7.8401 16.6445 8.84844 15.1014C9.85677 13.5584 11.2165 12.4355 12.9276 11.7327C13.2026 9.44102 14.2033 7.52365 15.9297 5.9806C17.6561 4.43754 19.6804 3.66602 22.0026 3.66602C24.3248 3.66602 26.3491 4.43754 28.0755 5.9806C29.8019 7.52365 30.8026 9.44102 31.0776 11.7327C32.7887 12.4355 34.1484 13.5584 35.1568 15.1014C36.1651 16.6445 36.6693 18.3327 36.6693 20.166C36.6693 22.7021 35.7755 24.8639 33.988 26.6514C32.2005 28.4389 30.0387 29.3327 27.5026 29.3327H23.8359V36.666H33.0026C33.522 36.666 33.9575 36.8417 34.3089 37.1931C34.6602 37.5445 34.8359 37.9799 34.8359 38.4994C34.8359 39.0188 34.6602 39.4542 34.3089 39.8056C33.9575 40.157 33.522 40.3327 33.0026 40.3327H11.0026C10.4832 40.3327 10.0477 40.157 9.69635 39.8056C9.34497 39.4542 9.16927 39.0188 9.16927 38.4994C9.16927 37.9799 9.34497 37.5445 9.69635 37.1931C10.0477 36.8417 10.4832 36.666 11.0026 36.666H20.1693Z" fill="#0094EB"/>
</svg>
