<svg width="24" height="24" viewBox="0 0 24 24" fill="none" xmlns="http://www.w3.org/2000/svg">
<path d="M12 23C8.9 23 6.29167 22.4208 4.175 21.2625C2.05833 20.1042 1 18.6833 1 17C1 16.5167 1.1 16.0458 1.3 15.5875C1.5 15.1292 1.79167 14.6833 2.175 14.25C2.55833 13.8167 3.02917 13.4292 3.5875 13.0875C4.14583 12.7458 4.775 12.4333 5.475 12.15C5.725 12.05 5.97083 12.0625 6.2125 12.1875C6.45417 12.3125 6.61667 12.5083 6.7 12.775C6.78333 13.025 6.7625 13.2708 6.6375 13.5125C6.5125 13.7542 6.325 13.9333 6.075 14.05C5.60833 14.2333 5.1875 14.4375 4.8125 14.6625C4.4375 14.8875 4.11667 15.1333 3.85 15.4C3.56667 15.6667 3.35417 15.9375 3.2125 16.2125C3.07083 16.4875 3 16.75 3 17C3 18.0667 3.9 19 5.7 19.8C7.5 20.6 9.6 21 12 21C14.4 21 16.5 20.6 18.3 19.8C20.1 19 21 18.0667 21 17C21 16.75 20.9292 16.4875 20.7875 16.2125C20.6458 15.9375 20.4333 15.6667 20.15 15.4C19.8833 15.1333 19.5625 14.8875 19.1875 14.6625C18.8125 14.4375 18.3917 14.2333 17.925 14.05C17.675 13.9333 17.4875 13.7542 17.3625 13.5125C17.2375 13.2708 17.2167 13.025 17.3 12.775C17.3833 12.5083 17.5458 12.3125 17.7875 12.1875C18.0292 12.0625 18.275 12.05 18.525 12.15C19.1417 12.4 19.7042 12.6792 20.2125 12.9875C20.7208 13.2958 21.1667 13.6333 21.55 14C22.0333 14.45 22.3958 14.9292 22.6375 15.4375C22.8792 15.9458 23 16.4667 23 17C23 18.6833 21.9417 20.1042 19.825 21.2625C17.7083 22.4208 15.1 23 12 23ZM10 19C9.71667 19 9.47917 18.9042 9.2875 18.7125C9.09583 18.5208 9 18.2833 9 18V8H5C4.71667 8 4.47917 7.90417 4.2875 7.7125C4.09583 7.52083 4 7.28333 4 7C4 6.71667 4.09583 6.47917 4.2875 6.2875C4.47917 6.09583 4.71667 6 5 6H19C19.2833 6 19.5208 6.09583 19.7125 6.2875C19.9042 6.47917 20 6.71667 20 7C20 7.28333 19.9042 7.52083 19.7125 7.7125C19.5208 7.90417 19.2833 8 19 8H15V18C15 18.2833 14.9042 18.5208 14.7125 18.7125C14.5208 18.9042 14.2833 19 14 19C13.7167 19 13.4792 18.9042 13.2875 18.7125C13.0958 18.5208 13 18.2833 13 18V14H11V18C11 18.2833 10.9042 18.5208 10.7125 18.7125C10.5208 18.9042 10.2833 19 10 19ZM12 5C11.45 5 10.9792 4.80417 10.5875 4.4125C10.1958 4.02083 10 3.55 10 3C10 2.45 10.1958 1.97917 10.5875 1.5875C10.9792 1.19583 11.45 1 12 1C12.55 1 13.0208 1.19583 13.4125 1.5875C13.8042 1.97917 14 2.45 14 3C14 3.55 13.8042 4.02083 13.4125 4.4125C13.0208 4.80417 12.55 5 12 5Z" fill="#0094EB"/>
</svg>
