<svg width="23" height="16" viewBox="0 0 23 16" fill="none" xmlns="http://www.w3.org/2000/svg">
<rect width="22.4" height="16" rx="2" fill="white"/>
<mask id="mask0_430_7325" style="mask-type:luminance" maskUnits="userSpaceOnUse" x="0" y="0" width="16" height="16">
<rect width="16" height="16" rx="2" fill="white"/>
</mask>
<g mask="url(#mask0_430_7325)">
<rect width="16" height="16" rx="8" fill="#F22A46"/>
<path fill-rule="evenodd" clip-rule="evenodd" d="M7.84277 9.87988C8.94734 9.87988 9.84277 8.98445 9.84277 7.87988C9.84277 6.77531 8.94734 5.87988 7.84277 5.87988C6.7382 5.87988 5.84277 6.77531 5.84277 7.87988C5.84277 8.98445 6.7382 9.87988 7.84277 9.87988Z" fill="#FFF04D"/>
<path fill-rule="evenodd" clip-rule="evenodd" d="M7.73027 10.9284C7.80923 10.8078 7.98598 10.8078 8.06493 10.9284L8.55037 11.6699C8.65157 11.8245 8.89033 11.7709 8.9158 11.5879L9.03988 10.6962C9.05966 10.5541 9.2182 10.4785 9.34112 10.5525L10.095 11.0063C10.2524 11.1011 10.4436 10.9512 10.3892 10.7757L10.1191 9.9051C10.0771 9.76954 10.1857 9.63454 10.3271 9.64657L11.2099 9.72168C11.3917 9.73714 11.4976 9.52102 11.3739 9.38685L10.7563 8.71669C10.6609 8.61324 10.6994 8.44629 10.8303 8.39495L11.6682 8.06648C11.8375 8.0001 11.8375 7.76046 11.6682 7.69408L10.8303 7.36561C10.6994 7.31426 10.6609 7.14731 10.7563 7.04386L11.3739 6.37371C11.4976 6.23953 11.3917 6.02341 11.2099 6.03888L10.3271 6.11399C10.1857 6.12602 10.0771 5.99102 10.1191 5.85546L10.3892 4.98486C10.4436 4.80936 10.2524 4.65949 10.095 4.75426L9.34112 5.20809C9.2182 5.28209 9.05966 5.20641 9.03988 5.06431L8.9158 4.17261C8.89033 3.98961 8.65157 3.93605 8.55037 4.09063L8.06493 4.83215C7.98598 4.95276 7.80923 4.95276 7.73027 4.83215L7.24483 4.09063C7.14363 3.93605 6.90487 3.98961 6.8794 4.17261L6.75532 5.06431C6.73554 5.20641 6.577 5.28209 6.45408 5.20809L5.70019 4.75426C5.54276 4.65949 5.35158 4.80936 5.40602 4.98486L5.67605 5.85546C5.7181 5.99102 5.6095 6.12602 5.46808 6.11399L4.5853 6.03888C4.40349 6.02341 4.29762 6.23953 4.42128 6.37371L5.03894 7.04386C5.13428 7.14731 5.09585 7.31426 4.96487 7.36561L4.127 7.69408C3.95767 7.76046 3.95767 8.0001 4.127 8.06648L4.96487 8.39495C5.09585 8.44629 5.13428 8.61324 5.03894 8.71669L4.42128 9.38685C4.29762 9.52102 4.40349 9.73714 4.5853 9.72168L5.46808 9.64657C5.6095 9.63454 5.7181 9.76954 5.67605 9.9051L5.40602 10.7757C5.35158 10.9512 5.54276 11.1011 5.70019 11.0063L6.45408 10.5525C6.577 10.4785 6.73554 10.5541 6.75532 10.6962L6.8794 11.5879C6.90487 11.7709 7.14363 11.8245 7.24483 11.6699L7.73027 10.9284ZM10.5992 7.88052C10.5992 9.40743 9.38958 10.6452 7.89746 10.6452C6.40533 10.6452 5.19573 9.40743 5.19573 7.88052C5.19573 6.35362 6.40533 5.11581 7.89746 5.11581C9.38958 5.11581 10.5992 6.35362 10.5992 7.88052Z" fill="#FFF04D"/>
</g>
</svg>
