<svg width="16" height="16" viewBox="0 0 16 16" fill="none" xmlns="http://www.w3.org/2000/svg">
<g clip-path="url(#clip0_430_7429)">
<path d="M8 16C12.4183 16 16 12.4183 16 8C16 3.58172 12.4183 0 8 0C3.58172 0 0 3.58172 0 8C0 12.4183 3.58172 16 8 16Z" fill="#F0F0F0"/>
<path d="M1.82861 2.90961H14.1714C13.7155 2.35758 13.1867 1.86805 12.6002 1.45508H3.39977C2.81324 1.86798 2.28452 2.35755 1.82861 2.90961Z" fill="#F0F0F0"/>
<path d="M0 7.99971C0 8.24493 0.0116563 8.48737 0.03325 8.72699H15.9668C15.9883 8.48737 16 8.24493 16 7.99971C16 7.75449 15.9883 7.51205 15.9668 7.27246H0.03325C0.0116563 7.51205 0 7.75449 0 7.99971H0Z" fill="#F0F0F0"/>
<path d="M0.872395 11.6361H15.1276C15.3632 11.1753 15.5553 10.6887 15.6988 10.1816H0.30127C0.444676 10.6887 0.636863 11.1754 0.872395 11.6361Z" fill="#F0F0F0"/>
<path d="M3.39977 14.5454H12.6002C13.1867 14.1324 13.7155 13.6429 14.1713 13.0908H1.82861C2.28452 13.6428 2.81324 14.1324 3.39977 14.5454Z" fill="#F0F0F0"/>
<path d="M0.30127 5.81781H15.6988C15.5554 5.31069 15.3632 4.82406 15.1277 4.36328H0.872426C0.636895 4.82406 0.444707 5.31069 0.30127 5.81781Z" fill="#F0F0F0"/>
<path d="M3.82593 1.45453H12.6001C11.2988 0.538344 9.71224 0 7.99983 0C6.95637 0 5.12718 0.538344 3.82593 1.45453Z" fill="#D80027"/>
<path d="M7.6521 4.36371H15.1275C14.8615 3.8433 14.5402 3.35584 14.1713 2.90918H7.6521V4.36371Z" fill="#D80027"/>
<path d="M7.6521 7.27289H15.9667C15.9217 6.77345 15.8312 6.28708 15.6987 5.81836H7.6521V7.27289Z" fill="#D80027"/>
<path d="M0.301203 10.1821H15.6987C15.8313 9.71338 15.9217 9.22698 15.9667 8.72754H0.0332031C0.0782031 9.22698 0.168641 9.71335 0.301203 10.1821Z" fill="#D80027"/>
<path d="M1.82856 13.0912H14.1713C14.5402 12.6445 14.8615 12.1571 15.1276 11.6367H0.872314C1.13835 12.1571 1.45966 12.6446 1.82856 13.0912Z" fill="#D80027"/>
<path d="M7.99988 16.0004C9.71228 16.0004 11.2988 15.4621 12.6001 14.5459H3.39966C4.70091 15.4621 6.28747 16.0004 7.99988 16.0004Z" fill="#D80027"/>
<path d="M0.301172 5.81819C0.168609 6.28694 0.0782031 6.77328 0.0332031 7.27272H7.99995V0C4.33808 0 1.25092 2.46038 0.301172 5.81819Z" fill="#0052B4"/>
<path d="M4.76221 2.08691L5.28018 3.68113H6.95662L5.60043 4.66651L6.11837 6.26082L4.76221 5.27551L3.406 6.26082L3.92406 4.66651L2.56787 3.68113H4.24421L4.76221 2.08691Z" fill="#F0F0F0"/>
</g>
<defs>
<clipPath id="clip0_430_7429">
<rect width="16" height="16" fill="white"/>
</clipPath>
</defs>
</svg>
