<svg width="22" height="28" viewBox="0 0 22 28" fill="none" xmlns="http://www.w3.org/2000/svg">
  <path fill-rule="evenodd" clip-rule="evenodd" d="M11.7872 27.0755L11.7888 27.0743L11.7913 27.0725L11.7986 27.0671L11.8234 27.0487C11.8442 27.0331 11.8737 27.011 11.9112 26.9824C11.9862 26.9253 12.0935 26.8425 12.2284 26.7355C12.4981 26.5216 12.8789 26.2102 13.334 25.8129C14.2422 25.02 15.4554 23.8763 16.6724 22.4738C19.0624 19.7196 21.6654 15.7406 21.6654 11.3337C21.6654 5.44262 16.8897 0.666992 10.9987 0.666992C5.10766 0.666992 0.332031 5.44262 0.332031 11.3337C0.332031 15.7406 2.93504 19.7196 5.32498 22.4738C6.54196 23.8763 7.75523 25.02 8.66344 25.8129C9.11848 26.2102 9.49934 26.5216 9.76901 26.7355C9.90391 26.8425 10.0112 26.9253 10.0862 26.9824C10.1237 27.011 10.1532 27.0331 10.174 27.0487L10.1988 27.0671L10.2061 27.0725L10.2095 27.075C10.6788 27.4192 11.3179 27.4197 11.7872 27.0755ZM10.9958 14.667C12.8367 14.667 14.3291 13.1746 14.3291 11.3337C14.3291 9.49271 12.8367 8.00033 10.9958 8.00033C9.15482 8.00033 7.66244 9.49271 7.66244 11.3337C7.66244 13.1746 9.15482 14.667 10.9958 14.667Z" fill="white" />
</svg>