<svg width="24" height="24" viewBox="0 0 24 24" fill="none" xmlns="http://www.w3.org/2000/svg">
  <path d="M1.33333 0C0.596954 0 0 0.596954 0 1.33333C0 13.8518 10.1482 24 22.6667 24C23.403 24 24 23.403 24 22.6667V16.2667C24 15.6779 23.6138 15.1588 23.0498 14.9896L17.7165 13.3896C17.2466 13.2486 16.7374 13.377 16.3905 13.7239L14.8288 15.2856C12.2738 13.847 10.153 11.7262 8.7144 9.17122L10.2761 7.60948C10.623 7.26263 10.7514 6.75336 10.6104 6.28354L9.01044 0.950203C8.84124 0.386224 8.32215 0 7.73333 0H1.33333Z" fill="white" />
</svg>