<svg width="24" height="24" viewBox="0 0 24 24" fill="none" xmlns="http://www.w3.org/2000/svg">
<path d="M10.9998 21.9508V20.9508C8.91647 20.7174 7.12897 19.8549 5.6373 18.3633C4.14564 16.8716 3.28314 15.0841 3.0498 13.0008H2.0498C1.76647 13.0008 1.52897 12.9049 1.3373 12.7133C1.14564 12.5216 1.0498 12.2841 1.0498 12.0008C1.0498 11.7174 1.14564 11.4799 1.3373 11.2883C1.52897 11.0966 1.76647 11.0008 2.0498 11.0008H3.0498C3.28314 8.91745 4.14564 7.12995 5.6373 5.63828C7.12897 4.14661 8.91647 3.28411 10.9998 3.05078V2.05078C10.9998 1.76745 11.0956 1.52995 11.2873 1.33828C11.479 1.14661 11.7165 1.05078 11.9998 1.05078C12.2831 1.05078 12.5206 1.14661 12.7123 1.33828C12.904 1.52995 12.9998 1.76745 12.9998 2.05078V3.05078C15.0831 3.28411 16.8706 4.14661 18.3623 5.63828C19.854 7.12995 20.7165 8.91745 20.9498 11.0008H21.9498C22.2331 11.0008 22.4706 11.0966 22.6623 11.2883C22.854 11.4799 22.9498 11.7174 22.9498 12.0008C22.9498 12.2841 22.854 12.5216 22.6623 12.7133C22.4706 12.9049 22.2331 13.0008 21.9498 13.0008H20.9498C20.7165 15.0841 19.854 16.8716 18.3623 18.3633C16.8706 19.8549 15.0831 20.7174 12.9998 20.9508V21.9508C12.9998 22.2341 12.904 22.4716 12.7123 22.6633C12.5206 22.8549 12.2831 22.9508 11.9998 22.9508C11.7165 22.9508 11.479 22.8549 11.2873 22.6633C11.0956 22.4716 10.9998 22.2341 10.9998 21.9508ZM11.9998 19.0008C13.9331 19.0008 15.5831 18.3174 16.9498 16.9508C18.3165 15.5841 18.9998 13.9341 18.9998 12.0008C18.9998 10.0674 18.3165 8.41745 16.9498 7.05078C15.5831 5.68411 13.9331 5.00078 11.9998 5.00078C10.0665 5.00078 8.41647 5.68411 7.0498 7.05078C5.68314 8.41745 4.9998 10.0674 4.9998 12.0008C4.9998 13.9341 5.68314 15.5841 7.0498 16.9508C8.41647 18.3174 10.0665 19.0008 11.9998 19.0008ZM11.9998 16.0008C10.8998 16.0008 9.95814 15.6091 9.1748 14.8258C8.39147 14.0424 7.9998 13.1008 7.9998 12.0008C7.9998 10.9008 8.39147 9.95912 9.1748 9.17578C9.95814 8.39245 10.8998 8.00078 11.9998 8.00078C13.0998 8.00078 14.0415 8.39245 14.8248 9.17578C15.6081 9.95912 15.9998 10.9008 15.9998 12.0008C15.9998 13.1008 15.6081 14.0424 14.8248 14.8258C14.0415 15.6091 13.0998 16.0008 11.9998 16.0008Z" fill="white"/>
</svg>
