<svg width="38" height="38" viewBox="0 0 38 38" fill="none" xmlns="http://www.w3.org/2000/svg">
<path d="M30.0844 33.251H6.33438C5.67465 33.251 5.20625 32.9673 4.92917 32.3999C4.65208 31.8326 4.69826 31.285 5.06771 30.7572L12.5094 20.3072C12.7997 19.885 13.1691 19.5617 13.6177 19.3374C14.0663 19.1131 14.5545 19.001 15.0823 19.001H21.4552L30.4802 8.47179C30.9552 7.91762 31.5358 7.76589 32.2219 8.01658C32.908 8.26727 33.251 8.76207 33.251 9.50096V30.0843C33.251 30.9551 32.941 31.7006 32.3208 32.3207C31.7007 32.9409 30.9552 33.251 30.0844 33.251ZM11.876 15.8343L6.96771 22.7614C6.70382 23.1308 6.36076 23.3485 5.93854 23.4145C5.51632 23.4805 5.12049 23.3815 4.75104 23.1176C4.3816 22.8537 4.16389 22.5107 4.09792 22.0885C4.03194 21.6662 4.1309 21.2704 4.39479 20.901L9.34271 14.0135C9.63299 13.5912 10.0024 13.2614 10.451 13.0239C10.8997 12.7864 11.3878 12.6676 11.9156 12.6676H18.2885L24.701 5.18637C24.9913 4.84332 25.3476 4.65859 25.7698 4.6322C26.192 4.60582 26.5747 4.73776 26.9177 5.02804C27.2608 5.31832 27.4455 5.67457 27.4719 6.09679C27.4983 6.51901 27.3663 6.90165 27.076 7.24471L20.6635 14.726C20.3733 15.0954 20.017 15.3725 19.5948 15.5572C19.1726 15.7419 18.7372 15.8343 18.2885 15.8343H11.876Z" fill="#0094EB"/>
</svg>
