<svg width="54" height="54" viewBox="0 0 54 54" fill="none" xmlns="http://www.w3.org/2000/svg">
<path d="M4.94772 36.9008L13.9477 24.9195C14.1727 24.6195 14.4446 24.3945 14.7633 24.2445C15.0821 24.0945 15.4102 24.0195 15.7477 24.0195C16.0852 24.0195 16.4133 24.0945 16.7321 24.2445C17.0508 24.3945 17.3227 24.6195 17.5477 24.9195L25.1977 35.1008C25.4227 35.4008 25.6852 35.6258 25.9852 35.7758C26.2852 35.9258 26.6227 36.0008 26.9977 36.0008C27.9352 36.0008 28.6102 35.5789 29.0227 34.7352C29.4352 33.8914 29.3602 33.0945 28.7977 32.3445L24.0727 26.1008C23.7727 25.6883 23.6227 25.2383 23.6227 24.7508C23.6227 24.2633 23.7727 23.8133 24.0727 23.4008L29.6977 15.9195C29.9227 15.6195 30.1946 15.3945 30.5133 15.2445C30.8321 15.0945 31.1602 15.0195 31.4977 15.0195C31.8352 15.0195 32.1633 15.0945 32.4821 15.2445C32.8008 15.3945 33.0727 15.6195 33.2977 15.9195L49.0477 36.9008C49.6102 37.6508 49.6852 38.4383 49.2727 39.2633C48.8602 40.0883 48.1852 40.5008 47.2477 40.5008H6.74772C5.81022 40.5008 5.13522 40.0883 4.72272 39.2633C4.31022 38.4383 4.38522 37.6508 4.94772 36.9008Z" fill="#0094EB"/>
</svg>
