<svg width="44" height="44" viewBox="0 0 44 44" fill="none" xmlns="http://www.w3.org/2000/svg">
<path d="M23.8306 38.4994V34.8327H31.1639V38.4994C31.1639 39.0188 30.9882 39.4542 30.6368 39.8056C30.2854 40.157 29.85 40.3327 29.3306 40.3327H25.6639C25.1444 40.3327 24.709 40.157 24.3576 39.8056C24.0063 39.4542 23.8306 39.0188 23.8306 38.4994ZM12.8306 38.4994V32.9993H3.34306C2.60972 32.9993 2.075 32.6785 1.73889 32.0368C1.40278 31.3952 1.43333 30.7688 1.83056 30.1577L7.05556 21.9993C6.35278 21.9993 5.82569 21.6862 5.47431 21.0598C5.12292 20.4334 5.16111 19.8146 5.58889 19.2035L14.9847 5.82018C15.1681 5.57574 15.3972 5.38477 15.6722 5.24727C15.9472 5.10977 16.2222 5.04102 16.4972 5.04102C16.7722 5.04102 17.0472 5.10977 17.3222 5.24727C17.5972 5.38477 17.8264 5.57574 18.0097 5.82018L27.4056 19.2035C27.8333 19.8146 27.8715 20.4334 27.5201 21.0598C27.1688 21.6862 26.6417 21.9993 25.9389 21.9993L31.2097 30.1577C31.6069 30.7688 31.6375 31.3952 31.3014 32.0368C30.9653 32.6785 30.4306 32.9993 29.6972 32.9993H20.1639V38.4994C20.1639 39.0188 19.9882 39.4542 19.6368 39.8056C19.2854 40.157 18.85 40.3327 18.3306 40.3327H14.6639C14.1444 40.3327 13.709 40.157 13.3576 39.8056C13.0062 39.4542 12.8306 39.0188 12.8306 38.4994ZM35.2889 32.9993L29.3306 23.8327C30.0639 23.8327 30.6063 23.5042 30.9576 22.8473C31.309 22.1903 31.2708 21.5563 30.8431 20.9452L23.1431 9.94518L25.9847 5.82018C26.1681 5.57574 26.3972 5.38477 26.6722 5.24727C26.9472 5.10977 27.2222 5.04102 27.4972 5.04102C27.7722 5.04102 28.0472 5.10977 28.3222 5.24727C28.5972 5.38477 28.8264 5.57574 29.0097 5.82018L38.4056 19.2035C38.8333 19.8146 38.8715 20.4334 38.5201 21.0598C38.1688 21.6862 37.6417 21.9993 36.9389 21.9993L42.1639 30.1577C42.5611 30.7688 42.5917 31.3952 42.2556 32.0368C41.9194 32.6785 41.3847 32.9993 40.6514 32.9993H35.2889Z" fill="#0094EB"/>
</svg>
