<svg width="17" height="16" viewBox="0 0 17 16" fill="none" xmlns="http://www.w3.org/2000/svg">
    <path fill-rule="evenodd" clip-rule="evenodd" d="M14.25 0.5C14.4921 1.62732 15.3727 2.50792 16.5 2.75C15.3727 2.99208 14.4921 3.87268 14.25 5C14.0079 3.87268 13.1273 2.99208 12 2.75C13.1273 2.50792 14.0079 1.62732 14.25 0.5ZM6.80401 0.650002C7.48764 3.83354 9.97447 6.32038 13.158 7.004C9.97447 7.68763 7.48764 10.1745 6.80401 13.358C6.12039 10.1745 3.63355 7.68763 0.450012 7.004C3.63355 6.32038 6.12039 3.83354 6.80401 0.650002ZM16.5 12.5C14.9969 12.1772 13.8227 11.0031 13.5 9.5C13.1772 11.0031 12.0031 12.1772 10.5 12.5C12.0031 12.8228 13.1772 13.9969 13.5 15.5C13.8227 13.9969 14.9969 12.8228 16.5 12.5Z" fill="#626981" />
</svg>