<svg width="44" height="44" viewBox="0 0 44 44" fill="none" xmlns="http://www.w3.org/2000/svg">
<path d="M11.9193 36.6673C9.13871 36.6673 6.76302 35.7048 4.79219 33.7798C2.82135 31.8548 1.83594 29.502 1.83594 26.7215C1.83594 24.3382 2.55399 22.2145 3.9901 20.3507C5.42622 18.4868 7.30538 17.2951 9.6276 16.7757C10.3915 13.9645 11.9193 11.6882 14.2109 9.94648C16.5026 8.20482 19.0998 7.33398 22.0026 7.33398C25.5776 7.33398 28.6102 8.57912 31.1005 11.0694C33.5908 13.5597 34.8359 16.5923 34.8359 20.1673C36.9443 20.4118 38.6936 21.3208 40.0839 22.8944C41.4741 24.468 42.1693 26.309 42.1693 28.4173C42.1693 30.709 41.3672 32.6569 39.763 34.2611C38.1589 35.8652 36.2109 36.6673 33.9193 36.6673H11.9193Z" fill="#0094EB"/>
</svg>
