<svg width="8" height="18" viewBox="0 0 8 18" fill="none" xmlns="http://www.w3.org/2000/svg">
  <path d="M3.00011 14.1748V3.8248L2.10011 4.7248C1.91678 4.90814 1.68761 4.9998 1.41261 4.9998C1.13761 4.9998 0.900109 4.8998 0.700109 4.6998C0.516776 4.51647 0.425109 4.28314 0.425109 3.9998C0.425109 3.71647 0.516776 3.48314 0.700109 3.2998L3.30011 0.699805C3.40011 0.599805 3.50844 0.528971 3.62511 0.487305C3.74178 0.445638 3.86678 0.424805 4.00011 0.424805C4.13344 0.424805 4.25844 0.445638 4.37511 0.487305C4.49178 0.528971 4.60011 0.599805 4.70011 0.699805L7.30011 3.2998C7.48344 3.48314 7.57511 3.7123 7.57511 3.9873C7.57511 4.2623 7.48344 4.4998 7.30011 4.6998C7.10011 4.8998 6.86261 4.9998 6.58761 4.9998C6.31261 4.9998 6.07511 4.8998 5.87511 4.6998L5.00011 3.8248V14.1748L5.90011 13.2748C6.08344 13.0915 6.31261 12.9998 6.58761 12.9998C6.86261 12.9998 7.10011 13.0998 7.30011 13.2998C7.48344 13.4831 7.57511 13.7165 7.57511 13.9998C7.57511 14.2831 7.48344 14.5165 7.30011 14.6998L4.70011 17.2998C4.60011 17.3998 4.49178 17.4706 4.37511 17.5123C4.25844 17.554 4.13344 17.5748 4.00011 17.5748C3.86678 17.5748 3.74178 17.554 3.62511 17.5123C3.50844 17.4706 3.40011 17.3998 3.30011 17.2998L0.700109 14.6998C0.516776 14.5165 0.420943 14.2873 0.412609 14.0123C0.404276 13.7373 0.500109 13.4998 0.700109 13.2998C0.883443 13.1165 1.11678 13.0248 1.40011 13.0248C1.68344 13.0248 1.91678 13.1165 2.10011 13.2998L3.00011 14.1748Z" fill="#364253" />
</svg>