<svg width="122" height="26" viewBox="0 0 122 26" fill="none" xmlns="http://www.w3.org/2000/svg">
<path d="M31.5829 20.3543C31.5829 20.3543 31.5764 16.3011 31.5732 14.2745C31.5732 13.3323 31.5698 12.3903 31.5698 11.4482C31.5698 10.6226 31.5928 9.73884 31.3511 8.92301C31.0964 8.07479 30.5824 7.28893 30.0447 6.59204C28.8884 5.09355 27.3793 3.86467 25.7697 2.87225C22.9131 1.111 19.5448 0.00384115 16.1647 0.00390625C12.3861 0.00397889 8.62045 1.26651 5.43956 3.25104C2.99988 4.77261 0.0443142 6.88342 0.0116234 10.0237C-0.0145292 12.2252 0.0116234 14.4266 0.0116234 16.628C0.0116234 17.8712 -0.00464232 19.1144 0.0116234 20.3543" fill="#2989CA"/>
<path d="M11.3663 10.2844C11.3525 10.2771 10.0201 9.55907 7.97486 8.14988C6.16121 6.90028 5.66964 6.1415 4.66153 3.74689L4.77625 3.67188C5.77337 6.0397 6.25946 6.81634 8.0467 8.04761C10.0854 9.45245 11.5002 10.216 11.5138 10.2233L11.3663 10.2844Z" fill="white"/>
<path d="M9.94107 11.08C9.94107 11.08 9.68976 10.9782 7.8356 9.70081C5.74376 8.25934 5.39521 7.41579 4.09824 4.27709L4.05029 4.16108L4.15568 4.08789L4.21454 4.2299C5.50035 7.34172 5.84595 8.17808 7.90744 9.59853C9.77374 10.8844 10.0257 10.9919 10.045 10.9981L9.94107 11.08Z" fill="white"/>
<path d="M14.1851 14.9199C14.1422 14.8975 9.86807 12.662 7.82232 11.2526C5.73065 9.81123 5.38209 8.96776 4.0853 5.82939C3.92078 5.43119 3.74462 5.00469 3.54385 4.52653L3.64838 4.44922C3.84915 4.92758 4.03691 5.38379 4.20159 5.78215C5.48724 8.89369 5.83284 9.72997 7.89417 11.1503C9.93335 12.5553 14.1875 14.7727 14.2305 14.795L14.1851 14.9199Z" fill="white"/>
<path d="M13.308 15.888C13.2731 15.8711 9.85542 14.2138 7.80902 12.8039C5.71718 11.3625 5.36862 10.5189 4.07183 7.38012C3.81283 6.75355 3.51955 6.04341 3.1659 5.21652C3.12063 5.11055 3.08094 5.02123 3.03452 4.92079L3.14316 4.83398C3.19024 4.93549 3.23578 5.06079 3.28171 5.1679C3.63551 5.99552 3.92912 6.70603 4.18812 7.33289C5.47376 10.4448 5.81937 11.2812 7.88086 12.7016C9.91923 14.1061 13.384 15.778 13.4188 15.7948L13.308 15.888Z" fill="white"/>
<path d="M11.7976 16.8758C11.7776 16.8644 9.84052 15.7632 7.79575 14.3545C5.70392 12.913 5.35536 12.0694 4.05856 8.93066C3.79973 8.30409 3.50628 7.59395 3.15264 6.76702C2.93777 6.26439 2.70738 5.81409 2.4556 5.41276C2.48975 5.38201 2.52431 5.3512 2.55924 5.32031C2.81463 5.72709 3.05078 6.20984 3.26844 6.7184C3.62225 7.54602 3.91586 8.25657 4.17486 8.88347C5.4605 11.9954 5.80611 12.8317 7.8676 14.2522C9.9076 15.6577 11.9 16.7896 11.9198 16.8009L11.7976 16.8758Z" fill="white"/>
<path d="M10.6728 17.7616C10.6641 17.7571 9.82778 17.3161 7.78203 15.9066C5.6902 14.4652 5.34164 13.6216 4.04484 10.4828C3.78584 9.85626 3.49256 9.14612 3.13892 8.31923C2.74739 7.40352 2.30457 6.66956 1.78296 6.07299C1.79688 6.05793 1.83375 6.01883 1.86847 5.98242C2.39893 6.58903 2.85794 7.34271 3.25472 8.27061C3.60853 9.09823 3.90214 9.80874 4.16114 10.4356C5.44678 13.5475 5.79238 14.3839 7.85388 15.8043C9.89142 17.2082 10.7697 17.6533 10.7784 17.6578L10.6728 17.7616Z" fill="white"/>
<path d="M9.81758 18.8815L7.76918 17.458C5.67734 16.0166 5.32878 15.173 4.03198 12.0342C3.77315 11.4077 3.4797 10.6975 3.12606 9.87059C2.57231 8.57562 1.90124 7.62054 1.06863 6.94596C1.09832 6.90387 1.13885 6.84746 1.14636 6.83789C1.99537 7.52555 2.67991 8.5079 3.24187 9.82197C3.59567 10.6496 3.88928 11.3601 4.14828 11.987C5.43392 15.0989 5.77953 15.9353 7.84102 17.3557L9.8865 18.7651L9.81758 18.8815Z" fill="white"/>
<path d="M9.44674 20.1329C9.31744 20.0797 8.95095 19.8312 7.75965 19.0105C5.66781 17.569 5.31925 16.7254 4.02246 13.5867C3.76346 12.9601 3.47018 12.2499 3.11654 11.4231C2.42976 9.81668 1.58065 8.75015 0.436066 8.06147C0.45629 8.01503 0.475509 7.97182 0.492551 7.93555C1.66075 8.6385 2.53457 9.74282 3.23234 11.3744C3.58615 12.2021 3.87975 12.9126 4.13875 13.5394C5.4244 16.6513 5.77 17.4877 7.83149 18.9082C8.99719 19.7114 9.35226 19.9416 9.458 20.0044" fill="white"/>
<path d="M3.09948 12.973C3.45319 13.8002 3.74676 14.5102 4.00537 15.137C5.2418 18.1298 5.62607 19.0264 7.47205 20.3539L7.71599 20.3538C5.77445 18.9894 5.37847 18.1319 4.12163 15.0898C3.86272 14.4628 3.56914 13.7521 3.21544 12.9244C2.44913 11.133 1.44002 9.95965 0.0767405 9.27148C0.0713774 9.30304 0.0647602 9.34728 0.0579612 9.39541C0.0572885 9.40018 0.056614 9.40498 0.0559387 9.4098C1.39161 10.0843 2.34544 11.2099 3.09948 12.973Z" fill="white"/>
<path d="M3.08596 14.525C3.4593 15.3974 3.76392 16.1391 4.03265 16.7935C4.73469 18.5017 5.13675 19.5255 5.75366 20.3539H5.92481C5.29808 19.5388 4.87948 18.5238 4.14922 16.7464C3.88018 16.0916 3.57525 15.3497 3.20192 14.4763C2.42733 12.6648 1.40128 11.5236 0.00425227 10.8262L0.00335693 10.9671C1.34179 11.6535 2.33483 12.7683 3.08596 14.525Z" fill="white"/>
<path d="M3.07248 16.0751C3.42587 16.9017 3.71914 17.6114 3.97806 18.2378C4.3336 19.0983 4.62462 19.7795 4.89258 20.3534L5.03301 20.3528C4.7586 19.771 4.46076 19.0774 4.09432 18.1904C3.83541 17.564 3.54183 16.8536 3.18843 16.0265C2.41691 14.2221 1.38862 13.0829 3.05176e-05 12.3848C0.000183911 12.4316 0.000160046 12.4785 0.000160046 12.5253C1.33077 13.2125 2.32457 14.3253 3.07248 16.0751Z" fill="white"/>
<path d="M3.0596 17.6285C3.413 18.4547 3.70627 19.1644 3.96488 19.7909C4.0474 19.9906 4.10781 20.1747 4.18282 20.3549H4.34684C4.26585 20.1604 4.17118 19.9614 4.08114 19.7434C3.82254 19.117 3.52896 18.4069 3.17556 17.5798C2.40649 15.7819 1.38378 14.6437 0.00393677 13.9453C0.00393677 13.9928 0.00449578 14.0414 0.00449578 14.0882C1.32636 14.7755 2.314 15.8851 3.0596 17.6285Z" fill="white"/>
<path d="M3.04609 19.1784C3.22709 19.6013 3.37777 19.9874 3.53054 20.3534L3.6706 20.3534C3.51231 19.9737 3.35071 19.5712 3.16205 19.1297C2.3962 17.3389 1.38179 16.2113 0.00976562 15.5117L0.00990879 15.6475C1.32426 16.336 2.30402 17.4421 3.04609 19.1784Z" fill="white"/>
<path d="M2.84548 20.3546L2.99668 20.3546C2.2566 18.758 1.28971 17.7379 0.0101779 17.082C0.0101779 17.1288 0.00979614 17.1821 0.00979614 17.2288C1.22 17.8661 2.13331 18.8382 2.84548 20.3546Z" fill="white"/>
<path d="M1.53995 20.3536H1.69652C1.21719 19.7117 0.639516 19.209 0.00465781 18.8223C0.00465781 18.8699 0.00460896 18.9228 0.00445557 18.9705C0.573972 19.3282 1.1005 19.7807 1.53995 20.3536Z" fill="white"/>
<path d="M18.5151 8.83035L18.481 8.71052C18.572 8.68495 18.8167 8.64284 19.1869 8.57906C20.4342 8.36427 23.0293 7.91733 24.2281 7.29182C25.9035 6.41765 26.4848 5.63071 27.2765 3.89844C27.3187 3.93052 27.37 3.96942 27.3827 3.97927C26.5779 5.74032 25.9945 6.51098 24.2865 7.40206C23.0703 8.03671 20.4619 8.48589 19.2086 8.70178C18.8553 8.76263 18.6 8.80657 18.5151 8.83035Z" fill="white"/>
<path d="M16.5455 10.1682L16.4619 10.0583C16.671 10.0143 16.8984 9.97185 17.1369 9.93372C17.8352 9.82222 18.5426 9.75592 19.2268 9.69178C20.816 9.54284 22.317 9.40215 23.7913 8.74465C25.6337 7.92296 27.2009 6.45692 28.1918 4.64062C28.2303 4.67436 28.2772 4.71546 28.2888 4.726C27.2848 6.56619 25.7103 8.0254 23.8428 8.85822C22.3497 9.52422 20.7681 9.67247 19.2386 9.8158C18.5566 9.87974 17.8511 9.94584 17.1569 10.0567C16.9206 10.0945 16.7525 10.1245 16.5455 10.1682Z" fill="white"/>
<path d="M28.9849 5.38477C28.0008 7.27928 26.4303 8.77555 24.6688 9.60421C23.2083 10.2912 21.7103 10.4621 20.1246 10.6427C19.5614 10.7069 18.9852 10.7865 18.4091 10.8782L18.6793 10.962C19.2016 10.883 19.6277 10.8247 20.1387 10.7665C21.6652 10.5925 23.2432 10.4125 24.7228 9.71673C26.5082 8.87682 28.0808 7.39615 29.0769 5.47853C29.0445 5.44525 28.9875 5.38703 28.9849 5.38477Z" fill="white"/>
<path d="M29.775 6.25391C28.7909 8.14811 27.179 9.72788 25.4178 10.5565C23.957 11.2435 22.459 11.4141 20.8733 11.595C20.7505 11.609 20.7121 11.6083 20.5876 11.6234L20.8062 11.7285C20.8757 11.7204 20.8335 11.7251 20.8878 11.7188C22.4134 11.54 23.9923 11.3648 25.4718 10.6691C27.2569 9.82914 28.8584 8.2682 29.8544 6.35058C29.8253 6.31474 29.7793 6.25868 29.775 6.25391Z" fill="white"/>
<path d="M30.5362 7.27344C29.5521 9.16764 27.9668 10.6901 26.2056 11.5188C24.8008 12.1796 23.4862 12.3499 21.9671 12.5239L22.0752 12.6511C23.5557 12.4818 24.8275 12.3048 26.2596 11.6313C28.0447 10.7914 29.6181 9.30998 30.6141 7.39236C30.5915 7.35709 30.5649 7.31662 30.5362 7.27344Z" fill="white"/>
<path d="M31.0557 8.17188C30.0716 10.0661 28.4015 11.7466 26.6403 12.5753C25.2454 13.2313 23.8665 13.4144 22.3594 13.5873L22.3376 13.7175C23.8077 13.5491 25.2726 13.3563 26.6943 12.6878C28.4794 11.8479 30.1254 10.2302 31.1215 8.31258C31.0994 8.26356 31.0584 8.17548 31.0557 8.17188Z" fill="white"/>
<path d="M31.4987 9.625C30.5079 11.4642 28.9018 13.0364 27.1807 13.8459C25.7202 14.5328 24.2222 14.7037 22.6365 14.8844C22.2742 14.9257 21.9501 14.9637 21.5798 15.013L21.4432 15.159C21.852 15.1029 22.2509 15.0537 22.6509 15.0081C24.1771 14.8342 25.7551 14.6545 27.2347 13.9584C28.9391 13.1564 30.5164 11.6436 31.524 9.8371C31.5176 9.77288 31.5089 9.70104 31.4987 9.625Z" fill="white"/>
<path d="M31.5699 11.6641C30.5748 13.2221 29.1494 14.5312 27.633 15.2442C26.1725 15.9315 24.6742 16.1024 23.0882 16.283C22.406 16.3608 21.7001 16.4414 21.0043 16.567C20.8956 16.5865 20.3738 16.6821 19.8576 16.7781C19.8497 16.788 19.8389 16.8036 19.8359 16.8075C19.8113 16.8382 19.7865 16.8687 19.7615 16.8992C19.754 16.9085 19.7461 16.9177 19.7386 16.927C20.2963 16.8229 20.9083 16.7108 21.027 16.6893C21.7185 16.5646 22.4222 16.4843 23.1026 16.4068C24.6291 16.2328 26.2074 16.0528 27.687 15.3567C29.1713 14.6588 30.5683 13.3981 31.5701 11.892L31.5699 11.6641Z" fill="white"/>
<path d="M31.5725 13.4512C30.6022 14.8057 29.3026 15.9442 27.9367 16.5868C26.4762 17.2737 24.9782 17.4443 23.3925 17.6253C22.7097 17.7031 22.0038 17.7837 21.308 17.909C21.2323 17.9227 20.7126 18.006 20.0546 18.1115C19.7262 18.1641 19.3635 18.2227 19.0081 18.2798C19.0081 18.2798 18.9942 18.3643 18.9944 18.4065C19.3634 18.3471 19.75 18.2864 20.0745 18.2344C20.7331 18.1288 21.2534 18.0455 21.3307 18.0315C22.0222 17.9068 22.7262 17.8266 23.4069 17.749C24.9331 17.5751 26.5111 17.3951 27.9907 16.6993C29.3317 16.0684 30.6013 14.9815 31.5728 13.6674L31.5725 13.4512Z" fill="white"/>
<path d="M31.5747 15.209C30.6567 16.3467 29.5052 17.2974 28.3051 17.8619C26.8449 18.5489 25.3472 18.7198 23.7619 18.9004C23.079 18.9782 22.3725 19.0588 21.6764 19.1847C21.5313 19.2109 20.4586 19.407 19.623 19.5727L19.7952 19.6792C20.6306 19.5134 21.5543 19.3331 21.6991 19.307C22.3912 19.1823 23.0952 19.102 23.7763 19.0242C25.3021 18.8502 26.8798 18.6702 28.3591 17.9744C29.5335 17.422 30.6622 16.5179 31.575 15.4195" fill="white"/>
<path d="M31.5767 16.5C30.7444 17.4069 29.517 18.2985 28.501 18.7765C27.0405 19.4634 25.5428 19.6343 23.9569 19.815C23.2743 19.8928 22.5681 19.9734 21.8724 20.0987C21.7506 20.1209 21.3633 20.1888 21.2424 20.2134L21.5498 20.2885C21.6701 20.2638 21.7739 20.2431 21.8951 20.2212C22.5868 20.0965 23.2906 20.0163 23.9713 19.9387C25.4974 19.7648 27.0758 19.5851 28.555 18.889C29.5495 18.4212 30.7534 17.556 31.577 16.6804" fill="white"/>
<path d="M28.392 20.3537C28.86 20.2226 29.3906 20.0216 29.8443 19.8081C30.444 19.5261 31.0292 19.1513 31.5803 18.7072L31.58 18.5352C31.0154 18.9991 30.408 19.4051 29.7903 19.6956C29.1913 19.9774 28.5262 20.2092 27.9111 20.3536C28.0739 20.3535 28.2291 20.3538 28.392 20.3537Z" fill="white"/>
<path d="M25.672 6.3346C24.5789 6.06709 23.7308 6.14795 22.6494 6.21246C22.4625 6.22356 22.5726 6.22078 22.3839 6.23021L22.068 6.12083C22.2561 6.1114 22.4555 6.09921 22.6418 6.08812C23.7326 6.02316 24.6924 5.9448 25.8041 6.21695L25.672 6.3346Z" fill="white"/>
<path d="M26.1199 5.87811C24.7844 5.31012 23.1209 5.5379 21.8321 5.67777C21.4529 5.71891 21.3739 5.73292 21.0931 5.74695L20.8522 5.64341C21.1291 5.62955 21.4413 5.59489 21.8184 5.55395C23.1211 5.41253 24.8406 5.19205 26.2066 5.77293L26.1199 5.87811Z" fill="white"/>
<path d="M26.5413 5.3093C25.0731 4.68476 22.0171 4.93481 20.3317 5.05171C20.0483 5.07135 19.9527 5.08034 19.7696 5.08948L19.5825 4.97861C19.7649 4.96946 20.0405 4.94704 20.3228 4.92745C22.0185 4.80993 25.1092 4.56427 26.6058 5.20071L26.5413 5.3093Z" fill="white"/>
<path d="M26.8815 4.74132C25.2859 4.06272 20.5151 4.31982 18.9477 4.40425L18.7583 4.41426L18.6087 4.29745L18.9408 4.27991C20.6821 4.18605 25.308 3.93671 26.9311 4.62685L26.8815 4.74132Z" fill="white"/>
<path d="M27.1193 4.25263C25.4367 3.53692 19.2784 3.51905 17.8327 3.59133L17.7084 3.46058C18.758 3.4081 25.3862 3.37983 27.1723 4.13948L27.1193 4.25263Z" fill="white"/>
<path d="M26.804 3.55458C24.5678 2.71751 18.6547 2.70517 17.0618 2.78514L16.9424 2.66328C18.0338 2.60947 23.9644 2.55763 26.5336 3.36725L26.6503 3.44721L26.7044 3.48473L26.804 3.55458Z" fill="white"/>
<path d="M25.2842 2.58276C22.5531 1.79041 17.0333 2.03702 16.3076 2.07337L16.1557 1.94796C17.2764 1.89254 22.2437 1.74904 24.8805 2.35506C25.0036 2.42239 25.1399 2.49959 25.2842 2.58276Z" fill="white"/>
<path d="M23.6421 1.72915C20.9614 1.06201 16.6023 1.1946 15.0503 1.27286L14.8029 1.1667C16.6501 1.07441 20.4967 0.979483 23.1117 1.49281C23.2625 1.55656 23.4456 1.63841 23.6421 1.72915Z" fill="white"/>
<path d="M20.0923 0.483618C18.4128 0.358284 16.1847 0.362722 13.2361 0.666668L13.1428 0.676341L13.5371 0.761923C16.8612 0.424402 19.0708 0.482103 20.7883 0.666844C20.7875 0.664748 20.4888 0.583024 20.4042 0.562223C20.3743 0.554852 20.0928 0.482227 20.0923 0.483618Z" fill="white"/>
<path d="M8.08163 1.83594C9.7903 1.84682 11.2079 2.11507 12.3973 2.65039C13.4008 3.10197 14.0398 3.77341 14.7165 4.48438C14.9475 4.72735 15.1865 4.97823 15.4448 5.22546C17.2262 6.92809 19.9076 7.56091 22.2958 7.95501L22.0149 8.03414C19.608 7.63669 17.1636 7.04151 15.3576 5.31486C15.0972 5.06581 14.857 4.81372 14.6251 4.56983C13.9572 3.86798 13.3262 3.20506 12.3452 2.76351C11.1106 2.20798 9.62209 1.94193 7.81219 1.96021C7.89013 1.92347 7.98221 1.88097 8.08163 1.83594Z" fill="white"/>
<path d="M9.60312 1.21321C11.2234 1.23771 12.5761 1.50352 13.7134 2.01516C14.6944 2.4567 15.3251 3.11963 15.993 3.82148C16.2252 4.06536 16.4651 4.31776 16.7258 4.56682C18.9008 6.64561 22.1434 7.35957 23.5303 7.58855L23.7693 7.50232C22.3937 7.27516 18.9625 6.53188 16.813 4.47741C16.5547 4.23018 16.3154 3.979 16.0844 3.73603C15.408 3.02505 14.7687 2.35361 13.7655 1.90203C12.6888 1.41756 11.4234 1.15161 9.92739 1.09766C9.80933 1.13888 9.69909 1.17799 9.60312 1.21321Z" fill="white"/>
<path d="M11.925 0.513672C13.1349 0.613956 14.1373 0.86083 15.0503 1.27189C16.0537 1.72347 16.693 2.39491 17.3694 3.10588C17.6004 3.34885 17.8394 3.60003 18.098 3.84726C20.2472 5.90142 23.6074 6.62921 24.9829 6.85637L24.8157 6.96467C23.4288 6.73568 20.1853 6.01546 18.0109 3.93666C17.7501 3.68761 17.5102 3.43521 17.278 3.19133C16.6102 2.48948 15.9795 1.82655 14.9981 1.38501C14.015 0.942635 12.8704 0.688945 11.5315 0.611325C11.6257 0.586266 11.7707 0.550488 11.925 0.513672Z" fill="white"/>
<path d="M6.89267 2.41649C8.25468 2.369 9.62636 2.41442 10.8739 2.97584C11.877 3.42711 12.516 4.09855 13.1925 4.80922C13.4238 5.0525 13.663 5.30368 13.9217 5.55121C15.7031 7.25384 18.3892 7.90033 20.7771 8.29444L20.3837 8.34126C17.9768 7.94381 15.6408 7.36727 13.8345 5.64062C13.5735 5.39126 13.3333 5.13886 13.101 4.89467C12.4332 4.19313 11.8028 3.5305 10.8218 3.08896C9.52168 2.50422 8.07241 2.49053 6.64105 2.5509" fill="white"/>
<path d="M17.8837 8.51014C15.9 8.17973 14.8387 7.93184 13.2207 6.38496C12.9621 6.13773 12.7228 5.88625 12.4918 5.64327C11.8154 4.9326 11.1764 4.26117 10.173 3.80989C8.67749 3.13663 7.00397 3.20548 5.38274 3.28637L5.16766 3.42168L5.29073 3.41609C6.9301 3.33398 8.62347 3.24913 10.1208 3.923C11.1019 4.36456 11.7326 5.02717 12.4004 5.72871C12.6326 5.97292 12.8728 6.22531 13.1336 6.47436C14.6816 7.95435 15.5796 8.23827 17.3726 8.54873C17.3849 8.54704 17.8837 8.51014 17.8837 8.51014Z" fill="white"/>
<path d="M15.5712 8.86418C14.2855 8.64465 13.3986 8.19297 12.1405 7.11702C11.8685 6.88439 11.6158 6.6467 11.3715 6.41683C10.6564 5.74412 9.98076 5.10875 8.95379 4.71294C7.66273 4.21543 6.27687 4.25475 4.97186 4.37125L4.98302 4.4953C6.27277 4.38015 7.64141 4.34084 8.90818 4.82903C9.91219 5.21594 10.5791 5.84316 11.2849 6.50717C11.5305 6.73806 11.7842 6.97678 12.0585 7.21132C13.2336 8.21636 14.0828 8.70292 15.2413 8.9499C15.2428 8.94961 15.5712 8.86418 15.5712 8.86418Z" fill="white"/>
<path d="M13.5993 9.44541C12.8388 9.17772 12.0711 8.72488 11.2572 8.02887C10.9852 7.79628 10.7326 7.55861 10.4882 7.32874C9.77308 6.65598 9.09744 6.02057 8.07031 5.62479C7.30857 5.33119 6.46957 5.19908 5.42029 5.20956L5.4216 5.33412C6.45317 5.32473 7.27839 5.45321 8.02471 5.7409C9.02889 6.12779 9.69582 6.75501 10.4018 7.41909C10.6472 7.64994 10.9009 7.88863 11.1752 8.12319C11.9645 8.79823 12.6641 9.23548 13.4006 9.51054C13.462 9.50132 13.5993 9.44541 13.5993 9.44541Z" fill="white"/>
<path d="M12.1305 10.0237C12.1368 10.0228 12.1711 10.0183 12.2107 10.0131L12.2278 9.96621C11.923 9.85708 11.4949 9.58167 11.2572 9.37843C10.9852 9.14584 10.7326 8.90815 10.4882 8.67832C9.77309 8.00557 9.09746 7.37016 8.07032 6.97434C7.46818 6.74232 6.79239 6.64143 6.33147 6.59766L6.31934 6.72164C6.77238 6.76468 7.43603 6.86358 8.02472 7.09044C9.0289 7.47738 9.69584 8.10461 10.4018 8.76865C10.6472 8.9995 10.9009 9.23819 11.1752 9.47273C11.3884 9.65506 11.7507 9.89653 12.0596 10.0329C12.0951 10.0282 12.1247 10.0245 12.1305 10.0237Z" fill="white"/>
<path d="M12.1842 16.6311C10.0728 17.873 9.4191 19.1846 9.43904 20.3558L21.9578 20.355C19.929 19.9723 19.1359 19.3986 19.009 18.7099C18.8946 18.0886 19.3293 17.398 19.9068 16.7341C20.4522 16.1084 21.1245 15.5065 21.5865 15.011C21.741 14.8459 21.8709 14.6919 21.966 14.5532C22.333 14.0142 22.428 13.5541 22.3303 13.1563C22.1783 12.539 21.5656 12.0743 20.7877 11.7036C18.8593 10.7855 15.9223 10.4436 16.5359 9.80142C17.1129 9.19447 19.1808 8.65404 20.8618 8.29963L20.8562 8.27539C20.6496 8.29073 20.4429 8.30749 20.2363 8.32426C19.5052 8.38073 18.774 8.43865 18.043 8.49657C17.7597 8.51837 17.4752 8.53307 17.1919 8.56485C16.0978 8.68375 15.0396 8.99074 13.9943 9.3192C13.2849 9.54231 12.5796 9.78112 11.8898 10.0585C11.2944 10.2982 10.6901 10.5578 10.1571 10.919C9.88388 11.1045 9.4495 11.4167 9.50686 11.797C9.72145 13.2102 18.0226 13.1957 12.1842 16.6311Z" fill="white"/>
<path d="M53.2815 17.297V20.0387C52.3804 20.239 51.4755 20.3391 50.5662 20.3391C48.7895 20.3391 47.4404 19.9178 46.5186 19.0747C45.5965 18.2318 45.1357 16.959 45.1357 15.2564V9.23474H42.5087V6.43044H45.1357L45.7671 1.56055H48.6971V6.43044H53.1424V9.23474H48.6971V14.5929C48.6971 15.6445 48.9244 16.3915 49.3791 16.8338C49.8337 17.2762 50.5493 17.4973 51.5259 17.4973C51.9975 17.4973 52.5824 17.4306 53.2815 17.297Z" fill="#2989CA"/>
<path d="M65.0196 6.7551C65.992 7.11405 66.716 7.71087 67.1918 8.54535C67.6673 9.37999 67.9054 10.5192 67.9054 11.963V20.0879H64.9375L64.6975 18.7108H64.5208C64.0155 19.2284 63.3842 19.6268 62.6263 19.9063C61.8687 20.1859 61.056 20.3257 60.189 20.3257C59.1365 20.3257 58.2419 20.163 57.5052 19.8375C56.7685 19.512 56.2108 19.0572 55.8319 18.4729C55.453 17.8888 55.2635 17.2085 55.2635 16.4323C55.2635 15.1804 55.7476 14.2102 56.7159 13.5216C57.6841 12.8331 59.2166 12.4137 61.313 12.2635L64.4198 11.9755V11.7001C64.4198 10.9574 64.289 10.3794 64.0283 9.96623C63.7671 9.55308 63.3653 9.25893 62.8222 9.08365C62.2791 8.90838 61.5485 8.82074 60.6309 8.82074C59.9909 8.82074 59.2942 8.87299 58.5408 8.97726C57.7873 9.08169 57.0737 9.23815 56.4003 9.44669V6.88031C57.1073 6.66338 57.8883 6.49847 58.743 6.3858C59.5973 6.27313 60.4163 6.2168 61.1993 6.2168C62.7735 6.2168 64.0472 6.39638 65.0196 6.7551ZM62.9295 17.6717C63.4766 17.4798 63.9733 17.1919 64.4198 16.8079V13.9661L61.6035 14.2165C60.6014 14.3166 59.8857 14.5232 59.4564 14.8361C59.0271 15.1491 58.8123 15.5894 58.8123 16.1569C58.8123 16.7245 59.0143 17.1668 59.4186 17.4839C59.8226 17.8012 60.4288 17.9596 61.2371 17.9596C61.818 17.9596 62.3821 17.8638 62.9295 17.6717Z" fill="#2989CA"/>
<path d="M89.8792 7.83844C90.7717 8.76072 91.218 10.1942 91.218 12.1387V20.3261H87.6817V12.3265C87.6817 11.2999 87.4691 10.5613 87.044 10.1106C86.6189 9.65994 86.019 9.4346 85.2444 9.4346C84.6634 9.4346 84.1203 9.53904 83.6153 9.74757C83.1101 9.95628 82.668 10.2734 82.2893 10.699C82.348 11.108 82.3775 11.5753 82.3775 12.1012V20.3261H78.8793V12.3265C78.8793 11.2917 78.6815 10.5509 78.2858 10.1044C77.8899 9.65797 77.309 9.4346 76.543 9.4346C75.9451 9.4346 75.3767 9.55981 74.838 9.81017C74.2991 10.0605 73.8359 10.4236 73.4488 10.8993V20.3261H69.8874V6.66787H72.8172L73.0448 8.09508H73.2215C73.7688 7.56927 74.4129 7.16457 75.1538 6.88072C75.8945 6.59709 76.6944 6.45508 77.5533 6.45508C78.4122 6.45508 79.174 6.60957 79.8392 6.91829C80.5042 7.22712 81.0431 7.69448 81.4557 8.32042C82.1544 7.66939 82.9081 7.19581 83.7163 6.89948C84.5246 6.60336 85.3454 6.45508 86.179 6.45508C87.7532 6.45508 88.9868 6.91633 89.8792 7.83844Z" fill="#2989CA"/>
<path d="M94.166 25.3229V22.5812C95.9509 23.0736 97.6178 23.3199 99.1672 23.3199C100.278 23.3199 101.173 23.1947 101.851 22.9443C102.529 22.6939 103.025 22.2996 103.341 21.7613C103.657 21.223 103.815 20.5113 103.815 19.6268V18.7129H103.638C103.099 19.2305 102.463 19.6248 101.731 19.8959C100.998 20.1672 100.186 20.3028 99.2935 20.3028C98.1484 20.3028 97.115 20.0587 96.1929 19.5704C95.2711 19.0822 94.5406 18.3416 94.0019 17.3483C93.4629 16.3552 93.1936 15.1408 93.1936 13.7053C93.1936 11.3435 93.9048 9.53021 95.3279 8.26578C96.7506 7.00135 98.8387 6.36914 101.592 6.36914C102.569 6.36914 103.566 6.43605 104.585 6.56944C105.604 6.70305 106.534 6.89081 107.376 7.13278V18.9758C107.376 20.6115 107.09 21.9469 106.517 22.9819C105.945 24.0166 105.071 24.7784 103.897 25.2666C102.722 25.7549 101.221 25.999 99.3945 25.999C97.5335 25.999 95.7909 25.7736 94.166 25.3229ZM102.286 17.1605C102.867 16.9602 103.377 16.6557 103.815 16.2466V9.33612C103.023 9.14427 102.177 9.04818 101.276 9.04818C98.2535 9.04818 96.7424 10.5047 96.7424 13.4173C96.7424 14.8363 97.0727 15.8648 97.7338 16.5033C98.3946 17.1417 99.3102 17.461 100.48 17.461C101.103 17.461 101.706 17.3608 102.286 17.1605Z" fill="#2989CA"/>
<path d="M119.114 6.7551C120.087 7.11405 120.811 7.71087 121.286 8.54535C121.762 9.37999 122 10.5192 122 11.963V20.0879H119.032L118.792 18.7108H118.615C118.11 19.2284 117.479 19.6268 116.721 19.9063C115.963 20.1859 115.151 20.3257 114.284 20.3257C113.231 20.3257 112.337 20.163 111.6 19.8375C110.863 19.512 110.305 19.0572 109.927 18.4729C109.548 17.8888 109.358 17.2085 109.358 16.4323C109.358 15.1804 109.842 14.2102 110.81 13.5216C111.779 12.8331 113.311 12.4137 115.408 12.2635L118.514 11.9755V11.7001C118.514 10.9574 118.384 10.3794 118.123 9.96623C117.862 9.55308 117.46 9.25893 116.917 9.08365C116.374 8.90838 115.643 8.82074 114.725 8.82074C114.086 8.82074 113.389 8.87299 112.635 8.97726C111.882 9.08169 111.168 9.23815 110.495 9.44669V6.88031C111.202 6.66338 111.983 6.49847 112.838 6.3858C113.692 6.27313 114.511 6.2168 115.294 6.2168C116.868 6.2168 118.142 6.39638 119.114 6.7551ZM117.024 17.6717C117.571 17.4798 118.068 17.1919 118.514 16.8079V13.9661L115.698 14.2165C114.696 14.3166 113.98 14.5232 113.551 14.8361C113.122 15.1491 112.907 15.5894 112.907 16.1569C112.907 16.7245 113.109 17.1668 113.513 17.4839C113.917 17.8012 114.523 17.9596 115.332 17.9596C115.913 17.9596 116.477 17.8638 117.024 17.6717Z" fill="#2989CA"/>
<path d="M97.3037 3.14852C96.4615 2.37665 96.0069 1.32703 95.9398 0H98.1245C98.2761 1.66934 99.181 2.50382 100.84 2.50382C102.482 2.50382 103.378 1.66934 103.53 0H105.715C105.647 1.33543 105.197 2.38701 104.363 3.1548C103.53 3.92274 102.355 4.30656 100.84 4.30656C99.3242 4.30656 98.1454 3.92062 97.3037 3.14852Z" fill="#97CA51"/>
</svg>
